<svg width="32" height="32" viewBox="0 0 32 32" fill="none" xmlns="http://www.w3.org/2000/svg">
<g id="Fav">
<rect width="32" height="32" fill="white"/>
<path id="S" d="M16 25C11.2857 25 9 22.8607 9 19.123H12.1429C12.4048 21.4344 13.4286 22.4918 16.0714 22.4918C18.6429 22.4918 19.7619 21.3607 19.7619 19.7377C19.7619 18.5328 19.119 17.7459 16.5238 17.3525L14.3571 17.0328C10.8095 16.5164 9.42857 15.2377 9.42857 12.3852C9.42857 9.2377 11.5952 7 16 7C20.4048 7 22.5714 9.21311 22.5714 12.6311H19.5C19.2857 10.5656 18.1905 9.5082 15.9286 9.5082C13.6667 9.5082 12.6667 10.5902 12.6667 12.1885C12.6667 13.3934 13.2143 14.0082 15.4762 14.3279L17.6429 14.6475C21.0952 15.1639 23 16.5164 23 19.541C23 22.8115 20.7143 25 16 25Z" fill="#09080E"/>
</g>
</svg>
