<svg width="24" height="24" viewBox="0 0 24 24" fill="none" xmlns="http://www.w3.org/2000/svg">
<g clip-path="url(#clip0_68_510)">
<path d="M23.8413 23.6883L23.8471 23.6873V15.114C23.8471 10.9198 22.9406 7.68896 18.0176 7.68896C15.651 7.68896 14.0629 8.98247 13.4145 10.2088H13.346V8.08052H8.67833V23.6873H13.5387V15.9594C13.5387 13.9247 13.9259 11.9571 16.4559 11.9571C18.9486 11.9571 18.9858 14.2792 18.9858 16.0899V23.6883H23.8413Z" fill="white"/>
<path d="M0.764313 8.08154H5.63053V23.6884H0.764313V8.08154Z" fill="white"/>
<path d="M3.19503 0.311523C1.63914 0.311523 0.376617 1.56899 0.376617 3.11867C0.376617 4.66834 1.63914 5.95211 3.19503 5.95211C4.75093 5.95211 6.01345 4.66834 6.01345 3.11867C6.01247 1.56899 4.74996 0.311523 3.19503 0.311523Z" fill="white"/>
</g>
<defs>
<clipPath id="clip0_68_510">
<rect width="23.4705" height="23.3766" fill="white" transform="translate(0.376617 0.311523)"/>
</clipPath>
</defs>
</svg>
