<svg width="66" height="66" viewBox="0 0 66 66" fill="none" xmlns="http://www.w3.org/2000/svg">
<rect width="66" height="66" rx="16" fill="white"/>
<path d="M39.6667 28.9999C39.6666 28.3175 39.4063 27.6351 38.8856 27.1144C38.3649 26.5937 37.6825 26.3333 37 26.3333M37 37C41.4183 37 45 33.4183 45 29C45 24.5817 41.4183 21 37 21C32.5817 21 29 24.5817 29 29C29 29.3649 29.0244 29.7241 29.0717 30.076C29.1496 30.6549 29.1885 30.9443 29.1623 31.1275C29.135 31.3182 29.1003 31.421 29.0063 31.5892C28.916 31.7507 28.7569 31.9097 28.4388 32.2278L21.6248 39.0418C21.3942 39.2724 21.2789 39.3877 21.1965 39.5223C21.1234 39.6416 21.0695 39.7716 21.0368 39.9077C21 40.0611 21 40.2242 21 40.5503V42.8667C21 43.6134 21 43.9868 21.1453 44.272C21.2732 44.5229 21.4771 44.7268 21.728 44.8547C22.0132 45 22.3866 45 23.1333 45H26.3333V42.3333H29V39.6667H31.6667L33.7722 37.5612C34.0903 37.2431 34.2493 37.084 34.4108 36.9937C34.579 36.8997 34.6818 36.865 34.8725 36.8377C35.0557 36.8115 35.3451 36.8504 35.924 36.9283C36.2759 36.9756 36.6351 37 37 37Z" stroke="black" stroke-width="2" stroke-linecap="round" stroke-linejoin="round"/>
</svg>
