<svg width="25" height="24" viewBox="0 0 25 24" fill="none" xmlns="http://www.w3.org/2000/svg">
<g id="lock-01">
<path id="Icon" d="M17.75 10V8C17.75 5.23858 15.5114 3 12.75 3C9.98858 3 7.75 5.23858 7.75 8V10M12.75 14.5V16.5M9.55 21H15.95C17.6302 21 18.4702 21 19.112 20.673C19.6765 20.3854 20.1354 19.9265 20.423 19.362C20.75 18.7202 20.75 17.8802 20.75 16.2V14.8C20.75 13.1198 20.75 12.2798 20.423 11.638C20.1354 11.0735 19.6765 10.6146 19.112 10.327C18.4702 10 17.6302 10 15.95 10H9.55C7.86984 10 7.02976 10 6.38803 10.327C5.82354 10.6146 5.3646 11.0735 5.07698 11.638C4.75 12.2798 4.75 13.1198 4.75 14.8V16.2C4.75 17.8802 4.75 18.7202 5.07698 19.362C5.3646 19.9265 5.82354 20.3854 6.38803 20.673C7.02976 21 7.86984 21 9.55 21Z" stroke="#DD7240" stroke-width="1.5" stroke-linecap="round" stroke-linejoin="round"/>
</g>
</svg>
