<svg width="70" height="23" viewBox="0 0 70 23" fill="none" xmlns="http://www.w3.org/2000/svg">
<path d="M7.056 17.568C2.304 17.568 -7.00355e-07 15.48 -7.00355e-07 11.832H3.168C3.432 14.088 4.464 15.12 7.128 15.12C9.72 15.12 10.848 14.016 10.848 12.432C10.848 11.256 10.2 10.488 7.584 10.104L5.4 9.792C1.824 9.288 0.431999 8.04 0.431999 5.256C0.431999 2.184 2.616 -4.76837e-07 7.056 -4.76837e-07C11.496 -4.76837e-07 13.68 2.16 13.68 5.496H10.584C10.368 3.48 9.264 2.448 6.984 2.448C4.704 2.448 3.696 3.504 3.696 5.064C3.696 6.24 4.248 6.84 6.528 7.152L8.712 7.464C12.192 7.968 14.112 9.288 14.112 12.24C14.112 15.432 11.808 17.568 7.056 17.568ZM18.4944 17.328H15.3984V0.240001H18.4944V17.328ZM24.2462 17.568C21.3422 17.568 19.7822 16.104 19.7822 13.824C19.7822 11.928 20.9102 10.416 24.0302 10.176L26.5502 9.96C27.7982 9.84 28.1582 9.504 28.1582 8.856C28.1582 7.632 27.4142 6.912 25.8782 6.912C24.4382 6.912 23.6462 7.536 23.5262 8.856H20.4542C20.4542 6.336 22.0382 4.704 25.8542 4.704C29.6702 4.704 31.2542 6.336 31.2542 8.856V14.16C31.2542 15.84 31.3982 16.92 31.6382 17.328H28.8302C28.4702 16.872 28.3022 16.368 28.3022 15.408C27.6062 16.824 26.3582 17.568 24.2462 17.568ZM25.1582 15.456C27.0782 15.456 28.1582 13.992 28.1582 12.192V11.328C27.9422 11.592 27.3662 11.736 26.5262 11.808L25.0622 11.928C23.5022 12.072 22.8782 12.72 22.8782 13.608C22.8782 14.712 23.5742 15.456 25.1582 15.456ZM32.6064 22.032V19.824H33.8544C35.2944 19.824 36.1344 19.128 36.1344 17.976C36.1344 17.616 36.0624 17.208 35.8944 16.776L31.4784 4.944H34.7184L37.9344 14.928L41.1504 4.944H44.3904L39.9744 16.776C38.4864 20.784 36.8544 22.032 33.8304 22.032H32.6064ZM50.2821 17.568C46.2501 17.568 43.9941 15.048 43.9941 11.136C43.9941 7.32 46.1541 4.704 50.1381 4.704C54.1461 4.704 56.3061 7.344 56.3061 10.992C56.3061 11.256 56.2821 11.496 56.2581 11.784H47.0901C47.1861 14.304 48.3861 15.456 50.2821 15.456C51.8181 15.456 52.8261 14.688 53.1861 13.416H56.0421C55.5141 15.96 53.6181 17.568 50.2821 17.568ZM50.1381 6.816C48.4341 6.816 47.3541 7.8 47.0901 9.768H53.2101C52.9461 7.8 51.8421 6.816 50.1381 6.816ZM62.5792 17.568C59.2432 17.568 57.1312 15.192 57.1312 11.136C57.1312 7.08 59.2432 4.704 62.5792 4.704C64.4512 4.704 65.6992 5.472 66.3952 6.816V0.240001H69.4912V17.328H66.5392V15.216C65.8672 16.656 64.6432 17.568 62.5792 17.568ZM63.2992 15.216C65.1472 15.216 66.3952 13.968 66.3952 11.136C66.3952 8.304 65.1472 7.056 63.2992 7.056C61.4752 7.056 60.2272 8.304 60.2272 11.136C60.2272 13.968 61.4752 15.216 63.2992 15.216Z" fill="#09080E"/>
</svg>
