<svg width="625" height="195" viewBox="0 0 625 195" fill="none" xmlns="http://www.w3.org/2000/svg">
<path d="M62.328 155.184C20.352 155.184 0 136.74 0 104.516H27.984C30.316 124.444 39.432 133.56 62.964 133.56C85.86 133.56 95.824 123.808 95.824 109.816C95.824 99.428 90.1 92.644 66.992 89.252L47.7 86.496C16.112 82.044 3.816 71.02 3.816 46.428C3.816 19.292 23.108 0 62.328 0C101.548 0 120.84 19.08 120.84 48.548H93.492C91.584 30.74 81.832 21.624 61.692 21.624C41.552 21.624 32.648 30.952 32.648 44.732C32.648 55.12 37.524 60.42 57.664 63.176L76.956 65.932C107.696 70.384 124.656 82.044 124.656 108.12C124.656 136.316 104.304 155.184 62.328 155.184Z" fill="#8170D7"/>
<path d="M165.488 153.064H138.14V2.12001H165.488V153.064Z" fill="#8170D7"/>
<path d="M218.415 155.184C192.763 155.184 178.983 142.252 178.983 122.112C178.983 105.364 188.947 92.008 216.507 89.888L238.767 87.98C249.791 86.92 252.971 83.952 252.971 78.228C252.971 67.416 246.399 61.056 232.831 61.056C220.111 61.056 213.115 66.568 212.055 78.228H184.919C184.919 55.968 198.911 41.552 232.619 41.552C266.327 41.552 280.319 55.968 280.319 78.228V125.08C280.319 139.92 281.591 149.46 283.711 153.064H258.907C255.727 149.036 254.243 144.584 254.243 136.104C248.095 148.612 237.071 155.184 218.415 155.184ZM226.471 136.528C243.431 136.528 252.971 123.596 252.971 107.696V100.064C251.063 102.396 245.975 103.668 238.555 104.304L225.623 105.364C211.843 106.636 206.331 112.36 206.331 120.204C206.331 129.956 212.479 136.528 226.471 136.528Z" fill="#8170D7"/>
<path d="M294.384 194.616V175.112H305.408C318.128 175.112 325.548 168.964 325.548 158.788C325.548 155.608 324.912 152.004 323.428 148.188L284.42 43.672H313.04L341.448 131.864L369.856 43.672H398.476L359.468 148.188C346.324 183.592 331.908 194.616 305.196 194.616H294.384Z" fill="#8170D7"/>
<path d="M452.638 155.184C417.022 155.184 397.094 132.924 397.094 98.368C397.094 64.66 416.174 41.552 451.366 41.552C486.77 41.552 505.85 64.872 505.85 97.096C505.85 99.428 505.638 101.548 505.426 104.092H424.442C425.29 126.352 435.89 136.528 452.638 136.528C466.206 136.528 475.11 129.744 478.29 118.508H503.518C498.854 140.98 482.106 155.184 452.638 155.184ZM451.366 60.208C436.314 60.208 426.774 68.9 424.442 86.284H478.502C476.17 68.9 466.418 60.208 451.366 60.208Z" fill="#8170D7"/>
<path d="M563.383 155.184C533.915 155.184 515.259 134.196 515.259 98.368C515.259 62.54 533.915 41.552 563.383 41.552C579.919 41.552 590.943 48.336 597.091 60.208V2.12001H624.439V153.064H598.363V134.408C592.427 147.128 581.615 155.184 563.383 155.184ZM569.743 134.408C586.067 134.408 597.091 123.384 597.091 98.368C597.091 73.352 586.067 62.328 569.743 62.328C553.631 62.328 542.607 73.352 542.607 98.368C542.607 123.384 553.631 134.408 569.743 134.408Z" fill="#8170D7"/>
</svg>
