<svg width="25" height="24" viewBox="0 0 25 24" fill="none" xmlns="http://www.w3.org/2000/svg">
<g clip-path="url(#clip0_68_506)">
<path d="M12.3766 2.16094C15.5829 2.16094 15.9626 2.175 17.2235 2.23125C18.3954 2.28281 19.0282 2.47969 19.4501 2.64375C20.0079 2.85938 20.411 3.12188 20.8282 3.53906C21.2501 3.96094 21.5079 4.35938 21.7235 4.91719C21.8876 5.33906 22.0844 5.97656 22.136 7.14375C22.1922 8.40937 22.2063 8.78906 22.2063 11.9906C22.2063 15.1969 22.1922 15.5766 22.136 16.8375C22.0844 18.0094 21.8876 18.6422 21.7235 19.0641C21.5079 19.6219 21.2454 20.025 20.8282 20.4422C20.4063 20.8641 20.0079 21.1219 19.4501 21.3375C19.0282 21.5016 18.3907 21.6984 17.2235 21.75C15.9579 21.8062 15.5782 21.8203 12.3766 21.8203C9.17037 21.8203 8.79068 21.8062 7.52974 21.75C6.35787 21.6984 5.72506 21.5016 5.30318 21.3375C4.74537 21.1219 4.34224 20.8594 3.92506 20.4422C3.50318 20.0203 3.24537 19.6219 3.02974 19.0641C2.86568 18.6422 2.66881 18.0047 2.61724 16.8375C2.56099 15.5719 2.54693 15.1922 2.54693 11.9906C2.54693 8.78438 2.56099 8.40469 2.61724 7.14375C2.66881 5.97187 2.86568 5.33906 3.02974 4.91719C3.24537 4.35938 3.50787 3.95625 3.92506 3.53906C4.34693 3.11719 4.74537 2.85938 5.30318 2.64375C5.72506 2.47969 6.36256 2.28281 7.52974 2.23125C8.79068 2.175 9.17037 2.16094 12.3766 2.16094ZM12.3766 0C9.11881 0 8.71099 0.0140625 7.43131 0.0703125C6.15631 0.126563 5.27974 0.332812 4.52037 0.628125C3.72818 0.9375 3.05787 1.34531 2.39224 2.01562C1.72193 2.68125 1.31412 3.35156 1.00474 4.13906C0.70943 4.90313 0.50318 5.775 0.44693 7.05C0.39068 8.33437 0.376617 8.74219 0.376617 12C0.376617 15.2578 0.39068 15.6656 0.44693 16.9453C0.50318 18.2203 0.70943 19.0969 1.00474 19.8563C1.31412 20.6484 1.72193 21.3188 2.39224 21.9844C3.05787 22.65 3.72818 23.0625 4.51568 23.3672C5.27974 23.6625 6.15162 23.8687 7.42662 23.925C8.70631 23.9812 9.11412 23.9953 12.3719 23.9953C15.6297 23.9953 16.0376 23.9812 17.3172 23.925C18.5922 23.8687 19.4688 23.6625 20.2282 23.3672C21.0157 23.0625 21.686 22.65 22.3516 21.9844C23.0172 21.3188 23.4297 20.6484 23.7344 19.8609C24.0297 19.0969 24.236 18.225 24.2922 16.95C24.3485 15.6703 24.3626 15.2625 24.3626 12.0047C24.3626 8.74688 24.3485 8.33906 24.2922 7.05938C24.236 5.78438 24.0297 4.90781 23.7344 4.14844C23.4391 3.35156 23.0313 2.68125 22.361 2.01562C21.6954 1.35 21.0251 0.9375 20.2376 0.632812C19.4735 0.3375 18.6016 0.13125 17.3266 0.075C16.0422 0.0140625 15.6344 0 12.3766 0Z" fill="white"/>
<path d="M12.3766 5.83594C8.97349 5.83594 6.21255 8.59688 6.21255 12C6.21255 15.4031 8.97349 18.1641 12.3766 18.1641C15.7797 18.1641 18.5407 15.4031 18.5407 12C18.5407 8.59688 15.7797 5.83594 12.3766 5.83594ZM12.3766 15.9984C10.1688 15.9984 8.37818 14.2078 8.37818 12C8.37818 9.79219 10.1688 8.00156 12.3766 8.00156C14.5844 8.00156 16.3751 9.79219 16.3751 12C16.3751 14.2078 14.5844 15.9984 12.3766 15.9984Z" fill="white"/>
<path d="M20.2235 5.59238C20.2235 6.38926 19.5766 7.03145 18.7844 7.03145C17.9876 7.03145 17.3454 6.38457 17.3454 5.59238C17.3454 4.79551 17.9922 4.15332 18.7844 4.15332C19.5766 4.15332 20.2235 4.8002 20.2235 5.59238Z" fill="white"/>
</g>
<defs>
<clipPath id="clip0_68_506">
<rect width="24" height="24" fill="white" transform="translate(0.376617)"/>
</clipPath>
</defs>
</svg>
