<svg width="256" height="256" viewBox="0 0 256 256" fill="none" xmlns="http://www.w3.org/2000/svg">
<rect width="256" height="256" fill="white"/>
<path d="M65.0726 148.536C54.4505 148.536 49.3004 143.869 49.3004 135.715H56.3818C56.9719 140.758 59.2788 143.064 65.2336 143.064C71.0275 143.064 73.5489 140.597 73.5489 137.056C73.5489 134.427 72.1004 132.711 66.2529 131.852L61.371 131.155C53.3776 130.028 50.2661 127.239 50.2661 121.016C50.2661 114.149 55.1479 109.267 65.0726 109.267C74.9973 109.267 79.8792 114.095 79.8792 121.552H72.9588C72.4759 117.046 70.0082 114.739 64.9117 114.739C59.8152 114.739 57.5621 117.099 57.5621 120.586C57.5621 123.215 58.7959 124.556 63.8924 125.254L68.7743 125.951C76.5531 127.078 80.8449 130.028 80.8449 136.627C80.8449 143.762 75.6948 148.536 65.0726 148.536ZM90.6409 148H83.7204V109.803H90.6409V148ZM103.498 148.536C97.0065 148.536 93.5194 145.264 93.5194 140.168C93.5194 135.929 96.0408 132.55 103.015 132.013L108.648 131.53C111.438 131.262 112.242 130.511 112.242 129.063C112.242 126.327 110.579 124.717 107.146 124.717C103.927 124.717 102.157 126.112 101.888 129.063H95.0215C95.0215 123.43 98.5622 119.782 107.092 119.782C115.622 119.782 119.163 123.43 119.163 129.063V140.919C119.163 144.674 119.485 147.088 120.021 148H113.744C112.94 146.981 112.564 145.854 112.564 143.708C111.008 146.873 108.219 148.536 103.498 148.536ZM105.536 143.816C109.828 143.816 112.242 140.543 112.242 136.52V134.588C111.759 135.178 110.472 135.5 108.594 135.661L105.322 135.929C101.835 136.251 100.44 137.7 100.44 139.685C100.44 142.152 101.996 143.816 105.536 143.816ZM122.185 158.515V153.579H124.975C128.194 153.579 130.072 152.024 130.072 149.448C130.072 148.644 129.911 147.732 129.535 146.766L119.664 120.318H126.906L134.095 142.635L141.284 120.318H148.526L138.655 146.766C135.329 155.725 131.681 158.515 124.921 158.515H122.185ZM161.696 148.536C152.683 148.536 147.64 142.904 147.64 134.159C147.64 125.629 152.468 119.782 161.374 119.782C170.333 119.782 175.161 125.683 175.161 133.837C175.161 134.427 175.107 134.964 175.054 135.608H154.561C154.775 141.24 157.457 143.816 161.696 143.816C165.129 143.816 167.382 142.099 168.187 139.256H174.571C173.391 144.942 169.153 148.536 161.696 148.536ZM161.374 124.503C157.565 124.503 155.151 126.702 154.561 131.101H168.241C167.65 126.702 165.183 124.503 161.374 124.503ZM189.183 148.536C181.726 148.536 177.006 143.225 177.006 134.159C177.006 125.093 181.726 119.782 189.183 119.782C193.368 119.782 196.158 121.498 197.713 124.503V109.803H204.634V148H198.035V143.279C196.533 146.498 193.797 148.536 189.183 148.536ZM190.793 143.279C194.924 143.279 197.713 140.489 197.713 134.159C197.713 127.829 194.924 125.039 190.793 125.039C186.716 125.039 183.926 127.829 183.926 134.159C183.926 140.489 186.716 143.279 190.793 143.279Z" fill="#09080E"/>
</svg>
